<?xml version="1.0" encoding="UTF-8" standalone="no"?>
<!-- Created with Inkscape (http://www.inkscape.org/) -->

<svg
   width="1200"
   height="630"
   viewBox="0 0 317.5 166.6875"
   version="1.1"
   id="svg5"
   inkscape:version="1.1.2 (b8e25be8, 2022-02-05)"
   sodipodi:docname="ogp-image.svg"
   inkscape:export-xdpi="96"
   inkscape:export-ydpi="96"
   xmlns:inkscape="http://www.inkscape.org/namespaces/inkscape"
   xmlns:sodipodi="http://sodipodi.sourceforge.net/DTD/sodipodi-0.dtd"
   xmlns="http://www.w3.org/2000/svg"
   xmlns:svg="http://www.w3.org/2000/svg">
  <sodipodi:namedview
     id="namedview7"
     pagecolor="#f6f6f6"
     bordercolor="#666666"
     borderopacity="1.0"
     inkscape:pageshadow="2"
     inkscape:pageopacity="0"
     inkscape:pagecheckerboard="false"
     inkscape:document-units="mm"
     showgrid="false"
     units="px"
     inkscape:zoom="0.72650896"
     inkscape:cx="624.90626"
     inkscape:cy="348.92894"
     inkscape:window-width="1701"
     inkscape:window-height="1035"
     inkscape:window-x="58"
     inkscape:window-y="25"
     inkscape:window-maximized="0"
     inkscape:current-layer="layer1" />
  <defs
     id="defs2" />
  <g
     inkscape:label="Layer 1"
     inkscape:groupmode="layer"
     id="layer1">
    <rect
       style="fill:#ffcfcc;fill-opacity:1;stroke-width:3.31105;stroke-linejoin:round"
       id="rect10481"
       width="317.5"
       height="33.950012"
       x="0"
       y="49.734783"
       ry="0.55433512" />
    <rect
       style="fill:#ccffdc;fill-opacity:1;stroke-width:3.31106;stroke-linejoin:round"
       id="rect10481-7"
       width="317.5"
       height="33.950012"
       x="0"
       y="-117.69707"
       ry="0.55433506"
       transform="scale(1,-1)" />
    <g
       aria-label="- Workers
+ Types"
       id="text3224"
       style="font-size:30.3081px;line-height:1;font-family:'Source Code Pro for Powerline';-inkscape-font-specification:'Source Code Pro for Powerline, Normal';stroke-width:0.757702">
      <path
         d="M 79.375001,68.072995 H 92.407484 V 66.193893 H 79.375001 Z"
         id="path958" />
      <path
         d="m 116.50905,77.135117 h 2.72773 l 2.18219,-8.334728 c 0.30308,-1.182016 0.54554,-2.39434 0.78801,-3.576356 h 0.0909 c 0.21216,1.182016 0.45462,2.39434 0.7274,3.576356 l 2.2731,8.334728 h 2.78835 l 2.93988,-19.912422 h -2.39434 l -1.5154,12.486937 c -0.12123,1.636638 -0.30308,3.273275 -0.42431,4.909912 h -0.12124 c -0.42431,-1.636637 -0.87893,-3.303583 -1.24263,-4.909912 l -2.09126,-7.33456 h -1.78818 l -2.09125,7.33456 c -0.39401,1.636638 -0.84863,3.273275 -1.27294,4.909912 h -0.0909 c -0.12123,-1.636637 -0.33339,-3.242966 -0.42431,-4.909912 l -1.60633,-12.486937 h -2.51557 z"
         id="path960" />
      <path
         d="m 133.13636,69.800556 c 0,4.879604 3.39451,7.698258 7.27395,7.698258 3.87944,0 7.27394,-2.818654 7.27394,-7.698258 0,-4.94022 -3.3945,-7.758873 -7.27394,-7.758873 -3.87944,0 -7.27395,2.818653 -7.27395,7.758873 z m 2.57619,0 c 0,-3.394507 1.87911,-5.697922 4.69776,-5.697922 2.81865,0 4.69775,2.303415 4.69775,5.697922 0,3.3642 -1.8791,5.637307 -4.69775,5.637307 -2.81865,0 -4.69776,-2.273107 -4.69776,-5.637307 z"
         id="path962" />
      <path
         d="m 153.91588,77.135117 h 2.48526 v -8.637809 c 1.75787,-3.061118 3.84913,-4.212826 6.06162,-4.212826 1.15171,0 1.69726,0.151541 2.72773,0.515238 l 0.57586,-2.151875 c -0.90925,-0.454622 -1.81849,-0.606162 -2.90958,-0.606162 -2.72773,0 -5.03114,1.485097 -6.57686,3.849129 h -0.0909 l -0.21216,-3.485432 h -2.06095 z"
         id="path964" />
      <path
         d="m 170.87658,77.135117 h 2.48526 v -4.00067 l 3.48543,-3.364199 5.42515,7.364869 h 2.78835 l -6.66779,-8.880274 5.87978,-5.849463 h -2.84897 l -7.94072,7.758874 h -0.12123 V 55.55575 h -2.48526 z"
         id="path966" />
      <path
         d="m 187.9282,69.800556 c 0,4.818988 3.54605,7.698258 7.91042,7.698258 2.36403,0 4.21282,-0.788011 5.66761,-1.727562 l -0.87893,-1.636637 c -1.36387,0.848626 -2.75804,1.363864 -4.4856,1.363864 -3.21266,0 -5.51608,-2.000334 -5.63731,-5.122069 h 11.51708 c 0.0606,-0.363697 0.0909,-0.909243 0.0909,-1.42448 0,-4.15221 -2.48526,-6.910247 -6.69809,-6.910247 -3.81882,0 -7.4861,2.939886 -7.4861,7.758873 z m 2.54588,-1.212324 c 0.39401,-2.879269 2.57619,-4.576523 4.97053,-4.576523 2.72773,0 4.36437,1.636638 4.36437,4.576523 z"
         id="path968" />
      <path
         d="m 208.43495,77.135117 h 2.48526 v -8.637809 c 1.75787,-3.061118 3.84913,-4.212826 6.06162,-4.212826 1.15171,0 1.69725,0.151541 2.72773,0.515238 l 0.57585,-2.151875 c -0.90924,-0.454622 -1.81848,-0.606162 -2.90957,-0.606162 -2.72773,0 -5.03115,1.485097 -6.57686,3.849129 h -0.0909 L 210.4959,62.40538 h -2.06095 z"
         id="path970" />
      <path
         d="m 224.36517,75.195398 c 1.78817,1.242632 4.33405,2.303416 7.21332,2.303416 4.21283,0 6.54655,-2.000335 6.54655,-4.394675 0,-2.242799 -1.90941,-3.394507 -5.87977,-4.394674 -2.66711,-0.666778 -4.4856,-1.394173 -4.4856,-2.606497 0,-1.151708 0.87894,-2.121567 3.63698,-2.121567 1.81848,0 3.3945,0.63647 4.69775,1.545713 l 1.21233,-1.606329 c -1.45479,-1.000167 -3.69759,-1.879102 -5.91008,-1.879102 -4.06129,0 -6.18286,1.818486 -6.18286,4.182518 0,2.091259 2.57619,3.424815 5.607,4.182517 3.60667,0.878935 4.78868,1.697254 4.78868,2.848962 0,1.27294 -1.30325,2.303415 -3.94005,2.303415 -2.63681,0 -4.45529,-0.78801 -6.09193,-2.000334 z"
         id="path972" />
      <path
         d="m 84.891075,104.29117 h 2.000335 v -5.910076 h 5.516074 V 96.501992 H 86.89141 v -5.910079 h -2.000335 v 5.910079 h -5.516074 v 1.879102 h 5.516074 z"
         id="path974" />
      <path
         d="m 120.96435,107.44322 h 2.54588 V 89.68267 h 6.54655 V 87.561103 H 114.4178 v 2.121567 h 6.54655 z"
         id="path976" />
      <path
         d="m 133.86376,111.5045 -0.51524,1.97003 c 0.51524,0.18185 1.24263,0.30308 1.93972,0.30308 3.33389,0 5.15238,-2.21249 6.24347,-5.12207 l 6.48593,-15.94206 h -2.36403 l -3.21266,8.15288 c -0.48493,1.33356 -1.06078,2.87927 -1.57602,4.27344 h -0.12123 c -0.60616,-1.42448 -1.24263,-2.97019 -1.81849,-4.27344 l -3.60666,-8.15288 h -2.51557 l 6.87993,14.76004 -0.45462,1.0911 c -0.72739,1.81848 -1.97002,3.15204 -4.03097,3.15204 -0.45463,0 -0.93956,-0.0909 -1.33356,-0.21216 z"
         id="path978" />
      <path
         d="m 154.7342,105.8975 c 1.33356,1.21233 3.06112,1.90941 4.42498,1.90941 3.54605,0 6.69809,-2.93988 6.69809,-7.940719 0,-4.576523 -2.12156,-7.516408 -6.09193,-7.516408 -1.81848,0 -3.72789,0.939551 -5.09176,2.242799 h -0.0909 L 154.3705,92.71348 h -2.06095 v 20.9429 h 2.48527 v -4.97053 z m 0.0606,-1.90941 v -7.334557 c 1.5154,-1.515405 3.03081,-2.212491 4.33405,-2.212491 2.93989,0 4.15221,2.182183 4.15221,5.425149 0,3.636969 -1.90941,5.849459 -4.54621,5.849459 -1.00017,0 -2.54588,-0.48492 -3.94005,-1.72756 z"
         id="path980" />
      <path
         d="m 169.75518,100.10866 c 0,4.81898 3.54604,7.69825 7.91041,7.69825 2.36403,0 4.21283,-0.78801 5.66762,-1.72756 l -0.87894,-1.63664 c -1.36386,0.84863 -2.75804,1.36387 -4.4856,1.36387 -3.21266,0 -5.51607,-2.00034 -5.63731,-5.12207 h 11.51708 c 0.0606,-0.3637 0.0909,-0.909243 0.0909,-1.424481 0,-4.152209 -2.48527,-6.910246 -6.69809,-6.910246 -3.81882,0 -7.4861,2.939885 -7.4861,7.758877 z m 2.54588,-1.212328 c 0.394,-2.879269 2.57619,-4.576523 4.97053,-4.576523 2.72772,0 4.36436,1.636638 4.36436,4.576523 z"
         id="path982" />
      <path
         d="m 188.01913,105.5035 c 1.78818,1.24263 4.33406,2.30341 7.21333,2.30341 4.21282,0 6.54655,-2.00033 6.54655,-4.39467 0,-2.2428 -1.90942,-3.39451 -5.87978,-4.394675 -2.66711,-0.666779 -4.4856,-1.394173 -4.4856,-2.606497 0,-1.151708 0.87894,-2.121567 3.63698,-2.121567 1.81848,0 3.3945,0.63647 4.69775,1.545713 l 1.21233,-1.606329 c -1.45479,-1.000167 -3.69759,-1.879102 -5.91008,-1.879102 -4.06129,0 -6.18286,1.818486 -6.18286,4.182517 0,2.091259 2.57619,3.424816 5.607,4.18252 3.60667,0.87893 4.78868,1.69725 4.78868,2.84896 0,1.27294 -1.30325,2.30342 -3.94005,2.30342 -2.6368,0 -4.45529,-0.78802 -6.09193,-2.00034 z"
         id="path984" />
    </g>
    <text
       xml:space="preserve"
       style="font-style:normal;font-weight:normal;font-size:10.5833px;line-height:1.25;font-family:sans-serif;fill:#000000;fill-opacity:1;stroke:none;stroke-width:0.264583"
       x="147.49474"
       y="155.87097"
       id="text26403"><tspan
         sodipodi:role="line"
         id="tspan26401"
         style="stroke-width:0.264583" /></text>
  </g>
</svg>
